<?xml version="1.0" encoding="UTF-8"?>
<svg id="Layer_8" data-name="Layer 8" xmlns="http://www.w3.org/2000/svg" xmlns:xlink="http://www.w3.org/1999/xlink" viewBox="0 0 1999.18 1999.18">
  <defs>
    <style>
      .cls-1 {
        filter: url(#drop-shadow-10);
      }

      .cls-2 {
        filter: url(#drop-shadow-7);
      }

      .cls-3 {
        fill: url(#New_Gradient_Swatch-10);
      }

      .cls-3, .cls-4, .cls-5, .cls-6, .cls-7, .cls-8, .cls-9, .cls-10, .cls-11, .cls-12, .cls-13, .cls-14, .cls-15 {
        stroke: #fff;
        stroke-miterlimit: 10;
        stroke-width: 12.08px;
      }

      .cls-4 {
        fill: url(#New_Gradient_Swatch-13);
      }

      .cls-5 {
        fill: url(#New_Gradient_Swatch-4);
      }

      .cls-16 {
        filter: url(#drop-shadow-4);
      }

      .cls-17 {
        filter: url(#drop-shadow-8);
      }

      .cls-18 {
        filter: url(#drop-shadow-3);
      }

      .cls-19 {
        filter: url(#drop-shadow-11);
      }

      .cls-20 {
        filter: url(#drop-shadow-1);
      }

      .cls-6 {
        fill: url(#New_Gradient_Swatch-8);
      }

      .cls-7 {
        fill: url(#New_Gradient_Swatch-12);
      }

      .cls-21 {
        filter: url(#drop-shadow-6);
      }

      .cls-8 {
        fill: url(#New_Gradient_Swatch-7);
      }

      .cls-9 {
        fill: url(#New_Gradient_Swatch-2);
      }

      .cls-22 {
        filter: url(#drop-shadow-5);
      }

      .cls-10 {
        fill: url(#New_Gradient_Swatch-3);
      }

      .cls-23 {
        filter: url(#drop-shadow-2);
      }

      .cls-11 {
        fill: url(#New_Gradient_Swatch-6);
      }

      .cls-12 {
        fill: url(#New_Gradient_Swatch-5);
      }

      .cls-24 {
        filter: url(#drop-shadow-9);
      }

      .cls-13 {
        fill: url(#New_Gradient_Swatch);
      }

      .cls-25 {
        filter: url(#drop-shadow-13);
      }

      .cls-26 {
        filter: url(#drop-shadow-12);
      }

      .cls-14 {
        fill: url(#New_Gradient_Swatch-11);
      }

      .cls-15 {
        fill: url(#New_Gradient_Swatch-9);
      }
    </style>
    <filter id="drop-shadow-1" filterUnits="userSpaceOnUse">
      <feOffset dx="0" dy="0"/>
      <feGaussianBlur result="blur" stdDeviation="21.72"/>
      <feFlood flood-color="#d374a1" flood-opacity="1"/>
      <feComposite in2="blur" operator="in"/>
      <feComposite in="SourceGraphic"/>
    </filter>
    <linearGradient id="New_Gradient_Swatch" data-name="New Gradient Swatch" x1="1458.18" y1="1404.94" x2="1458.18" y2="1007.43" gradientUnits="userSpaceOnUse">
      <stop offset="0" stop-color="#f89bd2"/>
      <stop offset=".1" stop-color="#f9a9d9"/>
      <stop offset=".35" stop-color="#fcc8ea"/>
      <stop offset=".55" stop-color="#fedcf4"/>
      <stop offset=".7" stop-color="#ffe3f8"/>
      <stop offset=".74" stop-color="#fedcf1"/>
      <stop offset=".87" stop-color="#fcd0e5"/>
      <stop offset="1" stop-color="#fccce2"/>
    </linearGradient>
    <filter id="drop-shadow-2" filterUnits="userSpaceOnUse">
      <feOffset dx="0" dy="0"/>
      <feGaussianBlur result="blur-2" stdDeviation="21.72"/>
      <feFlood flood-color="#d374a1" flood-opacity="1"/>
      <feComposite in2="blur-2" operator="in"/>
      <feComposite in="SourceGraphic"/>
    </filter>
    <linearGradient id="New_Gradient_Swatch-2" data-name="New Gradient Swatch" x1="1719.09" y1="1567.12" x2="1719.09" y2="1165.18" xlink:href="#New_Gradient_Swatch"/>
    <filter id="drop-shadow-3" filterUnits="userSpaceOnUse">
      <feOffset dx="0" dy="0"/>
      <feGaussianBlur result="blur-3" stdDeviation="21.72"/>
      <feFlood flood-color="#d374a1" flood-opacity="1"/>
      <feComposite in2="blur-3" operator="in"/>
      <feComposite in="SourceGraphic"/>
    </filter>
    <linearGradient id="New_Gradient_Swatch-3" data-name="New Gradient Swatch" x1="1243.42" y1="1526.76" x2="1243.42" y2="1138.98" xlink:href="#New_Gradient_Swatch"/>
    <filter id="drop-shadow-4" filterUnits="userSpaceOnUse">
      <feOffset dx="0" dy="0"/>
      <feGaussianBlur result="blur-4" stdDeviation="21.72"/>
      <feFlood flood-color="#d374a1" flood-opacity="1"/>
      <feComposite in2="blur-4" operator="in"/>
      <feComposite in="SourceGraphic"/>
    </filter>
    <linearGradient id="New_Gradient_Swatch-4" data-name="New Gradient Swatch" x1="1042.7" y1="1424.03" x2="1042.7" y2="1071.04" xlink:href="#New_Gradient_Swatch"/>
    <filter id="drop-shadow-5" filterUnits="userSpaceOnUse">
      <feOffset dx="0" dy="0"/>
      <feGaussianBlur result="blur-5" stdDeviation="21.72"/>
      <feFlood flood-color="#d374a1" flood-opacity="1"/>
      <feComposite in2="blur-5" operator="in"/>
      <feComposite in="SourceGraphic"/>
    </filter>
    <linearGradient id="New_Gradient_Swatch-5" data-name="New Gradient Swatch" x1="817.1" y1="1519.42" x2="817.1" y2="1138.09" xlink:href="#New_Gradient_Swatch"/>
    <filter id="drop-shadow-6" filterUnits="userSpaceOnUse">
      <feOffset dx="0" dy="0"/>
      <feGaussianBlur result="blur-6" stdDeviation="21.72"/>
      <feFlood flood-color="#d374a1" flood-opacity="1"/>
      <feComposite in2="blur-6" operator="in"/>
      <feComposite in="SourceGraphic"/>
    </filter>
    <linearGradient id="New_Gradient_Swatch-6" data-name="New Gradient Swatch" x1="519.21" y1="1429.57" x2="519.21" y2="1052.11" xlink:href="#New_Gradient_Swatch"/>
    <filter id="drop-shadow-7" filterUnits="userSpaceOnUse">
      <feOffset dx="0" dy="0"/>
      <feGaussianBlur result="blur-7" stdDeviation="21.72"/>
      <feFlood flood-color="#d374a1" flood-opacity="1"/>
      <feComposite in2="blur-7" operator="in"/>
      <feComposite in="SourceGraphic"/>
    </filter>
    <linearGradient id="New_Gradient_Swatch-7" data-name="New Gradient Swatch" x1="226.3" y1="1567.12" x2="226.3" y2="1156.15" xlink:href="#New_Gradient_Swatch"/>
    <filter id="drop-shadow-8" filterUnits="userSpaceOnUse">
      <feOffset dx="0" dy="0"/>
      <feGaussianBlur result="blur-8" stdDeviation="21.72"/>
      <feFlood flood-color="#d374a1" flood-opacity="1"/>
      <feComposite in2="blur-8" operator="in"/>
      <feComposite in="SourceGraphic"/>
    </filter>
    <linearGradient id="New_Gradient_Swatch-8" data-name="New Gradient Swatch" x1="1731.51" y1="926.93" x2="1731.51" y2="524.98" xlink:href="#New_Gradient_Swatch"/>
    <filter id="drop-shadow-9" filterUnits="userSpaceOnUse">
      <feOffset dx="0" dy="0"/>
      <feGaussianBlur result="blur-9" stdDeviation="21.72"/>
      <feFlood flood-color="#d374a1" flood-opacity="1"/>
      <feComposite in2="blur-9" operator="in"/>
      <feComposite in="SourceGraphic"/>
    </filter>
    <linearGradient id="New_Gradient_Swatch-9" data-name="New Gradient Swatch" x1="1392.6" y1="1061.41" x2="1392.6" y2="562.84" xlink:href="#New_Gradient_Swatch"/>
    <filter id="drop-shadow-10" filterUnits="userSpaceOnUse">
      <feOffset dx="0" dy="0"/>
      <feGaussianBlur result="blur-10" stdDeviation="21.72"/>
      <feFlood flood-color="#d374a1" flood-opacity="1"/>
      <feComposite in2="blur-10" operator="in"/>
      <feComposite in="SourceGraphic"/>
    </filter>
    <linearGradient id="New_Gradient_Swatch-10" data-name="New Gradient Swatch" x1="1059.84" y1="931.27" x2="1059.84" y2="432.7" xlink:href="#New_Gradient_Swatch"/>
    <filter id="drop-shadow-11" filterUnits="userSpaceOnUse">
      <feOffset dx="0" dy="0"/>
      <feGaussianBlur result="blur-11" stdDeviation="21.72"/>
      <feFlood flood-color="#d374a1" flood-opacity="1"/>
      <feComposite in2="blur-11" operator="in"/>
      <feComposite in="SourceGraphic"/>
    </filter>
    <linearGradient id="New_Gradient_Swatch-11" data-name="New Gradient Swatch" x1="500.9" y1="945.93" x2="500.9" y2="509.2" xlink:href="#New_Gradient_Swatch"/>
    <filter id="drop-shadow-12" filterUnits="userSpaceOnUse">
      <feOffset dx="0" dy="0"/>
      <feGaussianBlur result="blur-12" stdDeviation="21.72"/>
      <feFlood flood-color="#d374a1" flood-opacity="1"/>
      <feComposite in2="blur-12" operator="in"/>
      <feComposite in="SourceGraphic"/>
    </filter>
    <linearGradient id="New_Gradient_Swatch-12" data-name="New Gradient Swatch" x1="762.04" y1="1015.42" x2="762.04" y2="627.65" xlink:href="#New_Gradient_Swatch"/>
    <filter id="drop-shadow-13" filterUnits="userSpaceOnUse">
      <feOffset dx="0" dy="0"/>
      <feGaussianBlur result="blur-13" stdDeviation="21.72"/>
      <feFlood flood-color="#d374a1" flood-opacity="1"/>
      <feComposite in2="blur-13" operator="in"/>
      <feComposite in="SourceGraphic"/>
    </filter>
    <linearGradient id="New_Gradient_Swatch-13" data-name="New Gradient Swatch" x1="214.35" y1="994.79" x2="214.35" y2="607.8" xlink:href="#New_Gradient_Swatch"/>
  </defs>
  <g id="TEXT_copy" data-name="TEXT copy">
    <g id="society">
      <g id="t" class="cls-20">
        <path class="cls-13" d="m1592.34,1020.31c.94,17.39,2.36,56.04,4.26,115.95l-106.48-14.73,31.23,283.42-119.26-2.01c8.52-95.12,17.98-197.32,28.39-306.61h-8.52c-24.37,0-58.45-.43-102.22-1.29v-87.6c12.54,0,61.76,1.29,147.65,3.86l124.94,9.02Z"/>
      </g>
      <g id="y" class="cls-23">
        <path class="cls-9" d="m1675.08,1165.18l19.88,171.34h1.42c66.49-95.54,104.35-148.36,113.58-158.46,64.83,14.6,98.43,22.33,100.8,23.19v1.29c-188.12,233.39-285.14,354.92-291.05,364.58-4.5,0-22.48-1.72-53.95-5.15l95.12-194.53c-2.13-1.07-46.62-57.33-133.46-168.77l147.65-33.5Z"/>
      </g>
      <g id="e" class="cls-18">
        <path class="cls-10" d="m1124.88,1138.98h239.94c0,16.32-.95,57.12-2.84,122.39h-112.16c-10.89,0-27.45.43-49.69,1.29,1.89,18.47,2.84,33.93,2.84,46.38.47,3.44,4.26,5.15,11.36,5.15,44.96.86,70.51,1.29,76.67,1.29v30.92c0,1.72-.95,2.58-2.84,2.58l-89.44,5.15c-.95,22.55-1.42,39.29-1.42,50.24h1.42c86.6-4.29,138.19-6.44,154.75-6.44l7.1-1.29v130.12c-4.5,0-75.49-4.73-212.96-14.17v-243.49h-22.72c-1.9,0-2.84-.86-2.84-2.58v-124.96c.23-1.72,1.18-2.58,2.84-2.58Z"/>
      </g>
      <g id="i" class="cls-16">
        <path class="cls-5" d="m1078.2,1197.29c.94,6.44,8.52,82.02,22.72,226.74h-116.42l29.82-224.16c34.31-1.72,55.6-2.58,63.89-2.58Zm22.72-126.25c0,2.36-4.74,33.28-14.2,92.76-44.96,1.72-71.94,2.58-80.93,2.58-.95-6.65-3.79-37.57-8.52-92.76,56.31-1.72,90.86-2.58,103.64-2.58Z"/>
      </g>
      <g id="c" class="cls-22">
        <path class="cls-12" d="m827.74,1138.09h4.26c55.37,0,96.07,53.68,122.1,161.04h-1.42l-103.64,6.44c-4.97-79.01-10.65-118.52-17.04-118.52-3.55-6.01-9.71-9.02-18.46-9.02-9.71,0-18.22,13.32-25.56,39.94-7.58,37.58-11.36,76.23-11.36,115.95,0,71.93,10.88,119.17,32.65,141.71,6.86,2.58,11.12,3.86,12.78,3.86h7.1c7.33,0,11.59-15.46,12.78-46.38v-24.48c0-9.02-.48-22.76-1.42-41.23.94,0,1.42-.43,1.42-1.29,1.89.86,3.31,1.29,4.26,1.29,54.18,3.44,91.1,6.44,110.74,9.02-.95,20.18-9.94,48.95-26.98,86.32-24.61,37.79-58.21,56.68-100.8,56.68-61.29,0-106.72-37.36-136.3-112.08-10.42-26.62-15.62-48.52-15.62-65.7v-12.88c0-90.18,29.81-148.15,89.44-173.92,19.17-11.16,39.51-16.75,61.05-16.75Z"/>
      </g>
      <g id="o" class="cls-21">
        <path class="cls-11" d="m515.66,1052.11h2.84c48.74,0,88.5,28.77,119.26,86.32,12.3,27.91,18.46,54.97,18.46,81.16,0,54.32-17.51,107.57-52.53,159.75-26.74,33.5-57.03,50.24-90.86,50.24-47.09,0-85.89-33.92-116.42-101.77-9.47-27.91-14.2-53.25-14.2-76.01v-7.73c0-68.28,23.19-124.53,69.57-168.77,22.95-15.46,44.24-23.19,63.89-23.19Zm-36.91,152.02c2.13,97.05,13.49,156.31,34.07,177.78,1.65,3.44,4.97,5.15,9.94,5.15,14.2,0,24.14-34.35,29.81-103.06v-25.77c0-79.66-11.36-134.19-34.07-163.61-3.08-1.72-5.92-2.58-8.52-2.58-15.86,0-25.79,25.34-29.81,76.01,0,13.53-.48,25.55-1.42,36.07Z"/>
      </g>
      <g id="s" class="cls-2">
        <path class="cls-8" d="m217.78,1156.15h5.68c54.18,0,95.36,48.1,123.52,144.29v2.58c-67.68,15.46-102.22,23.19-103.64,23.19v-20.61c0-66.13-5.68-99.2-17.04-99.2-1.66-.86-3.55-1.29-5.68-1.29h-1.42c-18.93,0-31.71,24.91-38.33,74.72v16.75c0,23.4,8.04,39.72,24.14,48.95,6.39,7.09,41.41,12.24,105.06,15.46,22.24,6.23,36.44,13.96,42.59,23.19,8.52,12.03,12.78,23.19,12.78,33.5v11.59c0,25.55-16.57,57.76-49.69,96.62-26.98,27.49-58.69,41.23-95.12,41.23h-1.42c-56.79,0-100.8-54.96-132.04-164.9l116.42,11.59c-1.9,19.97-2.84,43.59-2.84,70.86s9.46,43.8,28.39,48.95c18.69,0,31.94-21.47,39.75-64.41v-14.17c0-33.28-15.15-56.47-45.43-69.57-4.97-3.22-27.69-6.65-68.15-10.31-25.79-6.44-44.25-16.75-55.37-30.92-4.74-8.8-7.1-18.25-7.1-28.34,3.55-41.65,18.22-80.73,44.01-117.23,25.08-28.34,52.05-42.51,80.93-42.51Z"/>
      </g>
    </g>
    <g id="cherry">
      <g id="y-2" data-name="y" class="cls-17">
        <path class="cls-6" d="m1687.5,524.98l19.88,171.34h1.42c66.49-95.54,104.35-148.36,113.58-158.46,64.83,14.6,98.43,22.33,100.8,23.19v1.29c-188.12,233.4-285.14,354.92-291.05,364.58-4.5,0-22.48-1.72-53.95-5.15l95.12-194.53c-2.13-1.07-46.62-57.33-133.46-168.76l147.65-33.5Z"/>
      </g>
      <g id="R" class="cls-24">
        <path class="cls-15" d="m1414.3,562.84h1.38c41.27,0,66.94,27.49,77.03,82.45l2.75,29.63c0,31.14-7.34,65.49-22.01,103.06-23.85,47.66-59.15,84.6-105.92,110.79,23.38,41.66,47.69,75.15,72.91,100.48,5.5,4.51,11.01,7.52,16.51,9.02,5.5,0,8.71-3.43,9.63-10.31v-5.15c0-14.81-12.38-40.15-37.14-76.01v-1.29c3.21-1.29,34.39-23.19,93.54-65.7,21.09,42.3,31.64,83.1,31.64,122.39v14.17c0,48.31-16.97,76.22-50.9,83.74-3.44.86-7.56,1.29-12.38,1.29h-2.75c-49.52,0-95.38-45.09-137.56-135.27-7.34-15.46-11.01-24.91-11.01-28.34h-11l-13.76,1.29,9.63,97.91c-33.24.86-58.46,1.29-75.66,1.29h-18.22c14.14-51.58,62.21-84.85-.43-323.15,13.29-1.72,30.86-.83,33.15-.83,8.25,21.69,11.64,40.77,11.64,43.13,1.6,0,5.73-12.45,12.38-37.36,30.72-78.16,72.91-117.24,126.55-117.24Zm-101.79,224.16c0,31.78,6.88,50.24,20.63,55.4h2.75c16.73,0,33.24-36.5,49.52-109.5,1.83-18.04,2.75-36.93,2.75-56.68,0-32.64-7.8-48.96-23.38-48.96h-1.37c-10.55,0-22.93,22.77-37.14,68.28-9.17,35.86-13.75,66.35-13.75,91.47Z"/>
      </g>
      <g id="R-2" data-name="R" class="cls-1">
        <path class="cls-3" d="m1081.55,432.7h1.38c41.27,0,66.94,27.49,77.03,82.45l2.75,29.63c0,31.14-7.34,65.49-22.01,103.06-23.85,47.66-59.15,84.6-105.92,110.79,23.38,41.66,47.69,75.15,72.91,100.48,5.5,4.51,11.01,7.52,16.51,9.02,5.5,0,8.71-3.43,9.63-10.31v-5.15c0-14.81-12.38-40.15-37.14-76.01v-1.29c3.21-1.29,34.39-23.19,93.54-65.7,21.09,42.3,31.64,83.1,31.64,122.39v14.17c0,48.31-16.97,76.22-50.9,83.74-3.44.86-7.56,1.29-12.38,1.29h-2.75c-49.52,0-95.38-45.09-137.56-135.27-7.34-15.46-11.01-24.91-11.01-28.34h-11l-13.76,1.29,9.63,97.91c-33.24.86-58.46,1.29-75.66,1.29h-18.22c14.14-51.58,62.21-84.85-.43-323.15,13.29-1.72,30.86-.83,33.15-.83,8.25,21.69,11.64,40.77,11.64,43.13,1.6,0,5.73-12.45,12.38-37.36,30.72-78.16,72.91-117.24,126.55-117.24Zm-101.79,224.16c0,31.78,6.88,50.24,20.63,55.4h2.75c16.73,0,33.24-36.5,49.52-109.5,1.83-18.04,2.75-36.93,2.75-56.68,0-32.64-7.8-48.96-23.38-48.96h-1.37c-10.55,0-22.93,22.77-37.14,68.28-9.17,35.86-13.75,66.35-13.75,91.47Z"/>
      </g>
      <g id="h" class="cls-19">
        <path class="cls-14" d="m617.32,509.2h7.1l-21.3,359.43h-61.05l-4.26-119.81-52.53,6.44c8.52,122.39,12.78,185.94,12.78,190.67-57.98-3.44-98.2-6.01-120.68-7.73,6.62-224.59,10.41-347.84,11.36-369.74,32.89-1.72,52.76-2.58,59.63-2.58.94,62.7,1.42,110.79,1.42,144.29v10.31c23.9-.86,41.41-1.29,52.53-1.29h2.84c-.95-15.46-3.79-85.03-8.52-208.7,50.4-.86,90.63-1.29,120.68-1.29Z"/>
      </g>
      <g id="E" class="cls-26">
        <path class="cls-7" d="m643.49,627.65h239.94c0,16.32-.95,57.12-2.84,122.39h-112.16c-10.89,0-27.45.43-49.69,1.29,1.89,18.47,2.84,33.93,2.84,46.38.47,3.44,4.26,5.15,11.36,5.15,44.95.86,70.51,1.29,76.67,1.29v30.92c0,1.72-.95,2.58-2.84,2.58l-89.44,5.15c-.95,22.54-1.42,39.29-1.42,50.24h1.42c86.61-4.29,138.19-6.44,154.75-6.44l7.1-1.29v130.12c-4.5,0-75.49-4.73-212.96-14.17v-243.48h-22.72c-1.9,0-2.84-.86-2.84-2.58v-124.96c.23-1.72,1.18-2.58,2.84-2.58Z"/>
      </g>
      <g id="c-2" data-name="c" class="cls-25">
        <path class="cls-4" d="m353.51,853.07c-9,48.59-25.3,85.24-48.92,109.91-21,21.21-45.74,31.81-74.22,31.81-26.99,0-53.13-9.16-78.44-27.47-25.3-18.31-43.39-40.58-54.26-66.82-15-36.63-22.49-73.46-22.49-110.49,0-25.45,3.56-49.94,10.68-73.47,9.37-31.24,26.61-57.17,51.73-77.8,25.11-20.63,51.73-30.95,79.84-30.95,30.73,0,57.53,12.35,80.4,37.02,26.23,28.54,44.79,70.57,55.67,126.1l-107.74,5.21c-6.76-89.09-17.86-133.63-33.28-133.63-12.04,0-21.81,21.95-29.33,65.83-4.89,29.26-7.34,55.04-7.34,77.37,0,34.64,4.91,73.72,14.75,117.21,7.94,35.41,17.2,53.12,27.8,53.12,13.99,0,20.99-26.66,20.99-80.01,0-6.52-.38-18.22-1.12-35.11l115.26,12.15Z"/>
      </g>
    </g>
  </g>
</svg>